<svg xmlns="http://www.w3.org/2000/svg" data-name="Layer 1" viewBox="0 0 100 125" x="0px" y="0px"><title>setng cog</title><path d="M89.57,62.87l-3.34-.59a2.83,2.83,0,0,1-2-2.19,24.05,24.05,0,0,0-.64-2.85,2.77,2.77,0,0,1,.86-2.81l2.79-2A4.35,4.35,0,0,0,88.3,46.4l-3.18-4.55a4.25,4.25,0,0,0-2.81-1.78,4.32,4.32,0,0,0-3.24.72l-2.79,2a2.52,2.52,0,0,1-1.82.31,2.68,2.68,0,0,1-1.13-.47A27.65,27.65,0,0,0,70.85,41a2.79,2.79,0,0,1-1.39-2.62L70,35.07a4.36,4.36,0,0,0-3.54-5l-5.47-1a4.36,4.36,0,0,0-5,3.54L55.42,36a2.83,2.83,0,0,1-2.19,2,24,24,0,0,0-2.85.64,2.8,2.8,0,0,1-1.21,0,2.48,2.48,0,0,1-1.6-.92l-2-2.79a4.25,4.25,0,0,0-2.81-1.78,4.32,4.32,0,0,0-3.24.72L35,37a4.25,4.25,0,0,0-1.78,2.81,4.32,4.32,0,0,0,.72,3.24l2,2.79a2.79,2.79,0,0,1-.14,3Q34.93,50,34.2,51.31a2.79,2.79,0,0,1-2.62,1.39l-3.34-.59a4.36,4.36,0,0,0-5,3.54l-1,5.47a4.37,4.37,0,0,0,3.54,5l3.34,0.59a2.83,2.83,0,0,1,2,2.19,24.05,24.05,0,0,0,.64,2.85,2.77,2.77,0,0,1-.86,2.81l-2.79,2A4.35,4.35,0,0,0,27,82.63l3.2,4.55A4.25,4.25,0,0,0,33.07,89a4.32,4.32,0,0,0,3.24-.72l2.79-2a2.52,2.52,0,0,1,1.82-.31,2.94,2.94,0,0,1,1.13.45q1.2,0.85,2.46,1.58A2.79,2.79,0,0,1,45.9,90.6l-0.59,3.34a4.37,4.37,0,0,0,3.54,5l5.47,1a4.37,4.37,0,0,0,5-3.54l0.59-3.34a2.83,2.83,0,0,1,2.19-2A24,24,0,0,0,65,90.42a2.8,2.8,0,0,1,1.21,0,2.48,2.48,0,0,1,1.6.92l2,2.79a4.25,4.25,0,0,0,2.81,1.78,4.32,4.32,0,0,0,3.24-.72l4.55-3.2a4.35,4.35,0,0,0,1.05-6.06l-2-2.79a2.79,2.79,0,0,1,.14-3q0.85-1.2,1.58-2.46A2.79,2.79,0,0,1,83.8,76.3l3.34,0.59a4.36,4.36,0,0,0,5-3.54l1-5.47A4.43,4.43,0,0,0,89.57,62.87ZM70.19,66.72A12.74,12.74,0,1,1,59.83,52,12.76,12.76,0,0,1,70.19,66.72Z"/><path d="M37.72,25.46a0.71,0.71,0,0,1,.55-0.33l1.68,0.29a2.9,2.9,0,0,0,3.36-2.36l0.49-2.74A2.9,2.9,0,0,0,41.43,17l-1.68-.29a0.67,0.67,0,0,1-.41-0.51,12.89,12.89,0,0,0-.33-1.5A0.69,0.69,0,0,1,39.16,14l1.41-1a2.91,2.91,0,0,0,.7-4l-1.6-2.27a3,3,0,0,0-1.88-1.19A2.87,2.87,0,0,0,35.63,6L34.22,7a0.58,0.58,0,0,1-.37,0A1.13,1.13,0,0,1,33.57,7a14.94,14.94,0,0,0-1.31-.84,0.71,0.71,0,0,1-.33-0.55l0.29-1.68A2.9,2.9,0,0,0,29.86.53L27.13,0a2.9,2.9,0,0,0-3.36,2.36L23.47,4.09A0.67,0.67,0,0,1,23,4.5a12.88,12.88,0,0,0-1.5.33,0.76,0.76,0,0,1-.63-0.16l-1-1.41A3,3,0,0,0,18,2.08a2.87,2.87,0,0,0-2.17.49l-2.27,1.6a2.91,2.91,0,0,0-.7,4l1,1.41a0.67,0.67,0,0,1-.06.63,14.94,14.94,0,0,0-.84,1.31,0.71,0.71,0,0,1-.55.33l-1.68-.29A2.9,2.9,0,0,0,7.34,14L6.85,16.69A2.9,2.9,0,0,0,9.21,20l1.68,0.29a0.67,0.67,0,0,1,.41.51,12.89,12.89,0,0,0,.33,1.5,0.69,0.69,0,0,1-.16.63l-1.41,1a3,3,0,0,0-1.19,1.88A2.87,2.87,0,0,0,9.37,28L11,30.27a3,3,0,0,0,1.88,1.19A2.87,2.87,0,0,0,15,31l1.41-1a0.58,0.58,0,0,1,.37,0,1.13,1.13,0,0,1,.27.1,14.94,14.94,0,0,0,1.31.84,0.71,0.71,0,0,1,.33.55l-0.29,1.68a2.9,2.9,0,0,0,2.36,3.36L23.51,37a2.9,2.9,0,0,0,3.36-2.36l0.29-1.68a0.67,0.67,0,0,1,.51-0.41,12.88,12.88,0,0,0,1.5-.33,0.76,0.76,0,0,1,.63.16l1,1.41a3,3,0,0,0,1.88,1.19,2.87,2.87,0,0,0,2.17-.49l2.27-1.6a2.91,2.91,0,0,0,.7-4l-1-1.41a0.67,0.67,0,0,1,.06-0.63A11.48,11.48,0,0,0,37.72,25.46Zm-6.82-6a5.65,5.65,0,1,1-4.59-6.54A5.68,5.68,0,0,1,30.9,19.48Z"/><text x="0" y="115" fill="#000000" font-size="5px" font-weight="bold" font-family="'Helvetica Neue', Helvetica, Arial-Unicode, Arial, Sans-serif"></text><text x="0" y="120" fill="#000000" font-size="5px" font-weight="bold" font-family="'Helvetica Neue', Helvetica, Arial-Unicode, Arial, Sans-serif"></text></svg>